<svg width="218" height="156" viewBox="0 0 218 156" fill="none" xmlns="http://www.w3.org/2000/svg">
<g clip-path="url(#clip0_5135_5361)">
<path d="M34.6185 136.921C15.5364 136.921 0 121.389 0 102.284C0 83.1794 15.0981 68.0863 33.8191 67.6606C34.0125 56.902 38.2931 46.8142 45.926 39.1903C53.7393 31.3729 64.1313 27.0643 75.1809 27.0643C79.397 27.0643 83.6002 27.7222 87.6745 29.0251C97.2671 11.1069 115.743 0 136.05 0C150.71 0 164.506 5.71471 174.872 16.0863C185.238 26.458 190.95 40.261 190.95 54.9283C190.95 59.2627 190.383 63.7132 189.248 68.1766C205.7 71.0017 217.987 85.5014 217.987 102.271C217.987 121.376 202.464 136.908 183.369 136.908H34.6185V136.921Z" fill="white"/>
<path d="M34.6186 68.4604C34.6186 46.0402 52.7853 27.864 75.1809 27.864C79.6936 27.864 84.0129 28.6251 88.0742 29.9925C86.0758 33.8239 84.5286 37.939 83.4842 42.2605C80.8024 41.6929 78.0304 41.4091 75.1809 41.4091C57.4784 41.4091 42.4706 52.774 36.9265 68.6023C36.1529 68.5378 35.3922 68.4733 34.6057 68.4733L34.6186 68.4604Z" fill="#E6EFF9"/>
<path d="M188.255 68.8345C204.63 71.2081 217.201 85.2563 217.201 102.271C217.201 104.593 216.969 106.851 216.517 109.044C213.384 93.6155 199.743 81.9926 183.394 81.9926C183.201 81.9926 183.021 82.0184 182.827 82.0184C183.82 80.3027 184.748 78.5612 185.548 76.7293C186.656 74.2009 187.533 71.5435 188.255 68.8345Z" fill="#E6EFF9"/>
<path d="M188.255 68.8345C189.454 64.3969 190.15 59.7529 190.15 54.9283C190.15 25.039 165.924 0.799805 136.05 0.799805C115.176 0.799805 97.0866 12.6549 88.0741 29.9926C86.8235 32.4049 85.8049 34.9462 84.9153 37.552C94.6884 23.5297 110.908 14.3319 129.281 14.3319C159.155 14.3319 183.369 38.5582 183.369 68.4604C183.369 74.459 182.35 80.2124 180.558 85.5917C182.479 82.8182 184.142 79.8512 185.535 76.7294C186.643 74.201 187.52 71.5435 188.242 68.8474L188.255 68.8345Z" fill="#E6EFF9"/>
<path d="M173.621 94.6217C173.415 94.6217 173.196 94.5443 173.041 94.3766C172.886 94.2218 172.809 94.0154 172.809 93.8219C172.809 93.6284 172.886 93.3962 173.054 93.2414C173.054 93.2414 173.08 93.2285 173.08 93.2156C178.057 88.391 182.002 82.7537 184.787 76.4326C184.787 76.4326 184.787 76.4197 184.787 76.4068C185.793 74.1106 186.669 71.5693 187.443 68.6539C187.443 68.6539 187.443 68.6539 187.443 68.641C187.559 68.2153 187.997 67.9444 188.423 68.0734C188.784 68.1637 189.016 68.4991 189.016 68.8474C189.016 68.9119 189.016 68.9893 188.99 69.0538V69.1054C188.178 72.0853 187.288 74.6782 186.257 77.0389C186.257 77.0389 186.257 77.0518 186.257 77.0647C183.394 83.5793 179.333 89.4101 174.189 94.3895C174.189 94.3895 174.176 94.4024 174.163 94.4153C174.008 94.5701 173.802 94.6475 173.608 94.6475L173.621 94.6217Z" fill="#25B4E8"/>
<path d="M81.9498 55.741C81.5114 55.741 81.1504 55.3798 81.1504 54.9412C81.1504 46.066 83.2391 37.552 87.365 29.6314C87.5713 29.2315 88.0612 29.0767 88.448 29.2831C88.7188 29.425 88.8864 29.7088 88.8864 30.0055C88.8864 30.1345 88.8606 30.2635 88.7961 30.3796C84.7992 38.068 82.7749 46.3369 82.7749 54.9412C82.7749 55.3798 82.4139 55.741 81.9756 55.741H81.9498Z" fill="#25B4E8"/>
<path d="M48.2338 72.1369C48.1307 72.1369 48.0146 72.1111 47.9115 72.0724C43.6954 70.2148 39.2214 69.2602 34.6185 69.2602C34.1801 69.2602 33.8191 68.899 33.8191 68.4604C33.8191 68.0218 34.1801 67.6606 34.6185 67.6606C39.4535 67.6606 44.1466 68.6539 48.569 70.6018C48.8656 70.7308 49.0461 71.0275 49.0461 71.3371C49.0461 71.4403 49.0203 71.5564 48.9816 71.6596C48.8527 71.9563 48.5561 72.1369 48.2467 72.1369H48.2338Z" fill="#25B4E8"/>
<path d="M16.2585 102.774C15.9877 102.774 15.7686 102.555 15.7686 102.284C15.7686 91.8869 24.2137 83.4373 34.6057 83.4373C34.8764 83.4373 35.0956 83.6566 35.0956 83.9275C35.0956 84.1984 34.8764 84.4178 34.6057 84.4178C24.7552 84.4178 16.7356 92.4416 16.7356 102.297C16.7356 102.568 16.5164 102.787 16.2456 102.787L16.2585 102.774Z" fill="#25B4E8"/>
<path d="M183.382 121.131C183.111 121.131 182.892 120.912 182.892 120.641C182.892 120.37 183.111 120.151 183.382 120.151C193.232 120.151 201.252 112.127 201.252 102.271C201.252 102 201.471 101.781 201.742 101.781C202.012 101.781 202.232 102 202.232 102.271C202.232 112.669 193.786 121.118 183.394 121.118L183.382 121.131Z" fill="#25B4E8"/>
<path d="M174.691 55.4185C174.421 55.4185 174.201 55.1992 174.201 54.9283C174.201 33.8755 157.079 16.7571 136.037 16.7571C135.767 16.7571 135.547 16.5378 135.547 16.2669C135.547 15.996 135.767 15.7767 136.037 15.7767C157.621 15.7767 175.168 33.3337 175.168 54.9154C175.168 55.1863 174.949 55.4056 174.679 55.4056L174.691 55.4185Z" fill="#25B4E8"/>
<path d="M34.6185 136.921C15.5364 136.921 0 121.389 0 102.284C0 83.1794 15.0981 68.0863 33.8191 67.6606C34.0125 56.902 38.2931 46.8142 45.926 39.1903C53.7393 31.3729 64.1313 27.0643 75.1809 27.0643C79.397 27.0643 83.6002 27.7222 87.6745 29.0251C97.2671 11.1069 115.743 0 136.05 0C150.71 0 164.506 5.71471 174.872 16.0863C185.238 26.458 190.95 40.261 190.95 54.9283C190.95 59.2627 190.383 63.7132 189.248 68.1766C205.7 71.0017 217.987 85.5014 217.987 102.271C217.987 121.376 202.464 136.908 183.369 136.908H34.6185V136.921ZM75.1809 28.6768C64.5568 28.6768 54.5774 32.8177 47.0606 40.3255C39.5438 47.8333 35.4179 57.8308 35.4179 68.4604C35.4179 68.6797 35.3277 68.8732 35.1858 69.028C35.0311 69.1828 34.8248 69.2602 34.6185 69.2602C16.4132 69.2602 1.61166 84.0695 1.61166 102.284C1.61166 120.499 16.4132 135.308 34.6185 135.308H183.381C201.587 135.308 216.388 120.486 216.388 102.271C216.388 85.9916 204.243 71.9563 188.139 69.6343C187.907 69.5956 187.714 69.4795 187.585 69.286C187.456 69.0925 187.417 68.8603 187.482 68.6281C188.719 64.0099 189.351 59.4046 189.351 54.9283C189.351 40.6867 183.807 27.2965 173.737 17.2215C163.681 7.15951 150.297 1.6125 136.063 1.6125C116.13 1.6125 98.0278 12.6291 88.8091 30.3667C88.6286 30.715 88.216 30.8827 87.8421 30.7537C83.7291 29.3734 79.4743 28.6639 75.2066 28.6639L75.1809 28.6768Z" fill="#25B4E8"/>
<path d="M112.197 60.3205H137.649C139.093 60.3205 140.137 59.0821 140.137 57.8437V50.2198H134.967C134.967 44.6599 130.416 40.1191 124.833 40.1191C119.25 40.1191 114.699 44.647 114.699 50.2198H109.529V57.8437C109.529 59.2885 110.766 60.3205 112.223 60.3205H112.197Z" fill="#224F4B"/>
<path d="M157.995 50.2327H145.875V57.7921C145.875 62.0749 142.6 65.3515 138.319 65.3515H111.011C106.731 65.3515 103.456 62.0749 103.456 57.7921V50.2327H92.5352C88.2546 50.2327 84.9797 53.5093 84.9797 57.7921V148.453C84.9797 152.736 88.2546 156.013 92.5352 156.013H157.982C162.262 156.013 165.537 152.736 165.537 148.453V57.7792C165.537 53.4964 162.262 50.2198 157.982 50.2198L157.995 50.2327Z" fill="#224F4B"/>
<path d="M126.264 139.694C141.852 139.694 154.488 127.052 154.488 111.456C154.488 95.8607 141.852 83.2181 126.264 83.2181C110.677 83.2181 98.0408 95.8607 98.0408 111.456C98.0408 127.052 110.677 139.694 126.264 139.694Z" fill="white"/>
<path d="M126.264 137.23C119.443 137.23 113.023 134.573 108.201 129.748C103.378 124.924 100.722 118.5 100.722 111.676C100.722 104.851 103.378 98.4272 108.201 93.6026C113.023 88.778 119.443 86.1206 126.264 86.1206C133.085 86.1206 139.505 88.778 144.328 93.6026C149.15 98.4272 151.806 104.851 151.806 111.676C151.806 118.5 149.15 124.924 144.328 129.748C139.505 134.573 133.085 137.23 126.264 137.23ZM126.264 89.5778C114.08 89.5778 104.178 99.4979 104.178 111.676C104.178 123.853 114.093 133.773 126.264 133.773C138.435 133.773 148.35 123.853 148.35 111.676C148.35 99.4979 138.435 89.5778 126.264 89.5778Z" fill="#25B4E8"/>
<path d="M126.238 124.111C124.704 124.111 123.44 125.388 123.44 126.923C123.44 128.458 124.717 129.736 126.238 129.736C127.76 129.736 129.049 128.458 129.049 126.923C129.049 125.388 127.773 124.111 126.238 124.111Z" fill="#25B4E8"/>
<path d="M126.806 94.6217C121.958 94.6217 118.193 96.6212 115.743 99.8333L118.296 102.594C120.178 100.04 122.577 98.4014 126.458 98.4014C130.338 98.4014 132.427 100.594 132.427 103.161C132.427 108.58 123.247 109.083 123.247 115.584C123.247 117.171 123.814 118.603 125.181 119.777L128.288 118.396C127.425 117.777 126.96 116.758 126.96 115.945C126.96 110.94 136.798 110.269 136.798 102.555C136.798 98.1563 133.02 94.6346 126.806 94.6346V94.6217Z" fill="#25B4E8"/>
</g>
<defs>
<clipPath id="clip0_5135_5361">
<rect width="218" height="156" fill="white"/>
</clipPath>
</defs>
</svg>
