<svg width="218" height="156" viewBox="0 0 218 156" fill="none" xmlns="http://www.w3.org/2000/svg">
<g clip-path="url(#clip0_5135_5415)">
<path d="M34.6185 136.921C15.5364 136.921 0 121.389 0 102.284C0 83.1794 15.0981 68.0863 33.8191 67.6606C34.0125 56.902 38.2931 46.8142 45.926 39.1903C53.7393 31.3729 64.1313 27.0643 75.1809 27.0643C79.397 27.0643 83.6002 27.7222 87.6745 29.0251C97.2671 11.1069 115.743 0 136.05 0C150.71 0 164.506 5.71471 174.872 16.0863C185.238 26.458 190.95 40.261 190.95 54.9283C190.95 59.2627 190.383 63.7132 189.248 68.1766C205.7 71.0017 217.987 85.5014 217.987 102.271C217.987 121.376 202.464 136.908 183.369 136.908H34.6185V136.921Z" fill="white"/>
<path d="M34.6185 68.4604C34.6185 46.0402 52.7852 27.864 75.1809 27.864C79.6935 27.864 84.0128 28.6251 88.0742 29.9925C86.0757 33.8239 84.5285 37.939 83.4842 42.2605C80.8024 41.6929 78.0303 41.4091 75.1809 41.4091C57.4784 41.4091 42.4706 52.774 36.9264 68.6023C36.1528 68.5378 35.3921 68.4733 34.6057 68.4733L34.6185 68.4604Z" fill="#E6EFF9"/>
<path d="M188.255 68.8345C204.63 71.2081 217.201 85.2563 217.201 102.271C217.201 104.593 216.969 106.851 216.517 109.044C213.384 93.6155 199.743 81.9926 183.394 81.9926C183.201 81.9926 183.02 82.0184 182.827 82.0184C183.82 80.3027 184.748 78.5612 185.548 76.7293C186.656 74.2009 187.533 71.5435 188.255 68.8345Z" fill="#E6EFF9"/>
<path d="M188.255 68.8345C189.454 64.3969 190.15 59.7529 190.15 54.9283C190.15 25.039 165.924 0.799805 136.05 0.799805C115.176 0.799805 97.0866 12.6549 88.0741 29.9926C86.8235 32.4049 85.8049 34.9462 84.9153 37.552C94.6884 23.5297 110.908 14.3319 129.281 14.3319C159.155 14.3319 183.369 38.5582 183.369 68.4604C183.369 74.459 182.35 80.2124 180.558 85.5917C182.479 82.8182 184.142 79.8512 185.535 76.7294C186.643 74.201 187.52 71.5435 188.242 68.8474L188.255 68.8345Z" fill="#E6EFF9"/>
<path d="M173.621 94.6217C173.415 94.6217 173.196 94.5443 173.041 94.3766C172.886 94.2218 172.809 94.0154 172.809 93.8219C172.809 93.6284 172.886 93.3962 173.054 93.2414C173.054 93.2414 173.08 93.2285 173.08 93.2156C178.057 88.391 182.002 82.7537 184.787 76.4326C184.787 76.4326 184.787 76.4197 184.787 76.4068C185.793 74.1106 186.669 71.5693 187.443 68.6539C187.443 68.6539 187.443 68.6539 187.443 68.641C187.559 68.2153 187.997 67.9444 188.423 68.0734C188.784 68.1637 189.016 68.4991 189.016 68.8474C189.016 68.9119 189.016 68.9893 188.99 69.0538V69.1054C188.178 72.0853 187.288 74.6782 186.257 77.0389C186.257 77.0389 186.257 77.0518 186.257 77.0647C183.394 83.5793 179.333 89.4101 174.189 94.3895C174.189 94.3895 174.176 94.4024 174.163 94.4153C174.008 94.5701 173.802 94.6475 173.608 94.6475L173.621 94.6217Z" fill="#25B4E8"/>
<path d="M81.9498 55.741C81.5115 55.741 81.1505 55.3798 81.1505 54.9412C81.1505 46.066 83.2392 37.552 87.365 29.6314C87.5713 29.2315 88.0613 29.0767 88.4481 29.2831C88.7188 29.425 88.8864 29.7088 88.8864 30.0055C88.8864 30.1345 88.8607 30.2635 88.7962 30.3796C84.7993 38.068 82.775 46.3369 82.775 54.9412C82.775 55.3798 82.414 55.741 81.9756 55.741H81.9498Z" fill="#25B4E8"/>
<path d="M48.2339 72.1369C48.1307 72.1369 48.0147 72.1111 47.9115 72.0724C43.6954 70.2148 39.2214 69.2602 34.6185 69.2602C34.1802 69.2602 33.8192 68.899 33.8192 68.4604C33.8192 68.0218 34.1802 67.6606 34.6185 67.6606C39.4535 67.6606 44.1467 68.6539 48.5691 70.6018C48.8656 70.7308 49.0461 71.0275 49.0461 71.3371C49.0461 71.4403 49.0204 71.5564 48.9817 71.6596C48.8527 71.9563 48.5562 72.1369 48.2468 72.1369H48.2339Z" fill="#25B4E8"/>
<path d="M16.2584 102.774C15.9877 102.774 15.7685 102.555 15.7685 102.284C15.7685 91.8869 24.2136 83.4373 34.6056 83.4373C34.8764 83.4373 35.0956 83.6566 35.0956 83.9275C35.0956 84.1984 34.8764 84.4178 34.6056 84.4178C24.7551 84.4178 16.7355 92.4416 16.7355 102.297C16.7355 102.568 16.5163 102.787 16.2455 102.787L16.2584 102.774Z" fill="#25B4E8"/>
<path d="M183.381 121.131C183.111 121.131 182.892 120.912 182.892 120.641C182.892 120.37 183.111 120.151 183.381 120.151C193.232 120.151 201.252 112.127 201.252 102.271C201.252 102 201.471 101.781 201.742 101.781C202.012 101.781 202.231 102 202.231 102.271C202.231 112.669 193.786 121.118 183.394 121.118L183.381 121.131Z" fill="#25B4E8"/>
<path d="M174.691 55.4185C174.421 55.4185 174.201 55.1992 174.201 54.9283C174.201 33.8755 157.079 16.7571 136.037 16.7571C135.766 16.7571 135.547 16.5378 135.547 16.2669C135.547 15.996 135.766 15.7767 136.037 15.7767C157.621 15.7767 175.168 33.3337 175.168 54.9154C175.168 55.1863 174.949 55.4056 174.678 55.4056L174.691 55.4185Z" fill="#25B4E8"/>
<path d="M34.6185 136.921C15.5364 136.921 0 121.389 0 102.284C0 83.1794 15.0981 68.0863 33.8191 67.6606C34.0125 56.902 38.2931 46.8142 45.926 39.1903C53.7393 31.3729 64.1313 27.0643 75.1809 27.0643C79.397 27.0643 83.6002 27.7222 87.6745 29.0251C97.2671 11.1069 115.743 0 136.05 0C150.71 0 164.506 5.71471 174.872 16.0863C185.238 26.458 190.95 40.261 190.95 54.9283C190.95 59.2627 190.383 63.7132 189.248 68.1766C205.7 71.0017 217.987 85.5014 217.987 102.271C217.987 121.376 202.464 136.908 183.369 136.908H34.6185V136.921ZM75.1809 28.6768C64.5568 28.6768 54.5774 32.8177 47.0606 40.3255C39.5438 47.8333 35.4179 57.8308 35.4179 68.4604C35.4179 68.6797 35.3277 68.8732 35.1858 69.028C35.0311 69.1828 34.8248 69.2602 34.6185 69.2602C16.4132 69.2602 1.61166 84.0695 1.61166 102.284C1.61166 120.499 16.4132 135.308 34.6185 135.308H183.381C201.587 135.308 216.388 120.486 216.388 102.271C216.388 85.9916 204.243 71.9563 188.139 69.6343C187.907 69.5956 187.714 69.4795 187.585 69.286C187.456 69.0925 187.417 68.8603 187.482 68.6281C188.719 64.0099 189.351 59.4046 189.351 54.9283C189.351 40.6867 183.807 27.2965 173.737 17.2215C163.681 7.15951 150.297 1.6125 136.063 1.6125C116.13 1.6125 98.0278 12.6291 88.8091 30.3667C88.6286 30.715 88.216 30.8827 87.8421 30.7537C83.7291 29.3734 79.4743 28.6639 75.2066 28.6639L75.1809 28.6768Z" fill="#25B4E8"/>
<path d="M112.198 60.3205H137.649C139.093 60.3205 140.137 59.0821 140.137 57.8437V50.2198H134.967C134.967 44.6599 130.416 40.1191 124.833 40.1191C119.25 40.1191 114.699 44.647 114.699 50.2198H109.529V57.8437C109.529 59.2885 110.766 60.3205 112.223 60.3205H112.198Z" fill="#224F4B"/>
<path d="M157.995 50.2327H145.875V57.7921C145.875 62.0749 142.6 65.3515 138.319 65.3515H111.011C106.731 65.3515 103.456 62.0749 103.456 57.7921V50.2327H92.5353C88.2547 50.2327 84.9798 53.5093 84.9798 57.7921V148.453C84.9798 152.736 88.2547 156.013 92.5353 156.013H157.982C162.262 156.013 165.537 152.736 165.537 148.453V57.7792C165.537 53.4964 162.262 50.2198 157.982 50.2198L157.995 50.2327Z" fill="#224F4B"/>
<path d="M125.271 142.068C140.859 142.068 153.495 129.425 153.495 113.83C153.495 98.2343 140.859 85.5917 125.271 85.5917C109.684 85.5917 97.0479 98.2343 97.0479 113.83C97.0479 129.425 109.684 142.068 125.271 142.068Z" fill="white"/>
<path d="M125.271 139.591C118.451 139.591 112.03 136.934 107.208 132.109C102.386 127.285 99.7297 120.86 99.7297 114.036C99.7297 107.212 102.386 100.788 107.208 95.9633C112.03 91.1387 118.451 88.4813 125.271 88.4813C132.092 88.4813 138.513 91.1387 143.335 95.9633C148.157 100.788 150.813 107.212 150.813 114.036C150.813 120.86 148.157 127.285 143.335 132.109C138.513 136.934 132.092 139.591 125.271 139.591ZM125.271 91.9385C113.087 91.9385 103.185 101.859 103.185 114.036C103.185 126.214 113.1 136.134 125.271 136.134C137.443 136.134 147.358 126.214 147.358 114.036C147.358 101.859 137.443 91.9385 125.271 91.9385Z" fill="#25B4E8"/>
<path d="M134.993 108.283H133.304V103.407H133.265C133.265 98.7626 129.681 94.9829 125.271 94.9829C120.862 94.9829 117.278 98.7626 117.278 103.407V108.283H115.55C114.041 108.283 112.829 109.495 112.829 111.005V126.64C112.829 128.149 114.041 129.361 115.55 129.361H134.993C136.501 129.361 137.713 128.136 137.713 126.64V111.005C137.713 109.495 136.489 108.283 134.993 108.283ZM119.998 103.407C119.998 100.272 122.357 97.7177 125.258 97.7177C128.159 97.7177 130.532 100.259 130.532 103.407V108.283H119.998V103.407ZM126.406 118.654C126.496 119.39 126.586 120.073 126.664 120.757C126.741 121.441 126.831 122.125 126.922 122.86C127.012 123.595 127.102 124.395 127.218 125.298H123.286C123.402 124.395 123.505 123.595 123.595 122.86C123.673 122.125 123.776 121.441 123.853 120.757C123.93 120.073 124.021 119.39 124.111 118.654C124.137 118.435 124.163 118.203 124.188 117.971C123.415 117.584 122.86 116.784 122.86 115.842C122.86 114.526 123.93 113.456 125.246 113.456C126.561 113.456 127.631 114.526 127.631 115.842C127.631 116.771 127.089 117.571 126.303 117.971C126.329 118.203 126.354 118.435 126.38 118.654H126.406Z" fill="#25B4E8"/>
</g>
<defs>
<clipPath id="clip0_5135_5415">
<rect width="218" height="156" fill="white"/>
</clipPath>
</defs>
</svg>
